<?xml version="1.0" encoding="UTF-8"?>
<svg version="1.1" xmlns="http://www.w3.org/2000/svg" width="720" height="720">
<path d="M0 0 C237.6 0 475.2 0 720 0 C720 237.6 720 475.2 720 720 C482.4 720 244.8 720 0 720 C0 482.4 0 244.8 0 0 Z " fill="#FEFEFE" transform="translate(0,0)"/>
<path d="M0 0 C0.81146484 -0.02835937 1.62292969 -0.05671875 2.45898438 -0.0859375 C6.45796562 -0.09905967 8.37809219 -0.10487761 11.44921875 2.609375 C13.2123421 5.76848221 14.63264786 8.87360295 15.9375 12.25 C16.31648438 13.22356445 16.31648438 13.22356445 16.703125 14.21679688 C18.86139116 19.82080975 20.84268544 25.48637779 22.81201172 31.15893555 C24.88511311 37.0970155 27.19003841 42.91665453 29.55859375 48.7421875 C31.64459585 53.90351386 33.5529452 59.13051606 35.47265625 64.35546875 C36.67538714 67.5581125 37.98164509 70.70792143 39.3125 73.859375 C41.43858112 78.9253501 43.44214153 84.02854122 45.40234375 89.16015625 C45.69468399 89.92305466 45.98702423 90.68595306 46.28822327 91.4719696 C47.49762426 94.62913818 48.70629379 97.78650898 49.90307617 100.94848633 C55.67141702 118.21202028 55.67141702 118.21202028 66.9375 131.8125 C69.3046875 133.55078125 69.3046875 133.55078125 71.0625 135.5 C71.3828125 138.66796875 71.3828125 138.66796875 71.0625 141.5 C69.46198336 143.10051664 67.77403878 142.62731472 65.55859375 142.62939453 C64.12205444 142.63412277 64.12205444 142.63412277 62.65649414 142.63894653 C61.61485107 142.6369223 60.57320801 142.63489807 59.5 142.6328125 C58.43837646 142.63376923 57.37675293 142.63472595 56.28295898 142.63571167 C54.03336528 142.63639364 51.78376963 142.63453819 49.53417969 142.63037109 C46.07742929 142.6250231 42.62080883 142.63031554 39.1640625 142.63671875 C36.98437471 142.63605797 34.804687 142.63477682 32.625 142.6328125 C31.58335693 142.63483673 30.54171387 142.63686096 29.46850586 142.63894653 C28.51081299 142.63579437 27.55312012 142.63264221 26.56640625 142.62939453 C25.71892822 142.62859894 24.8714502 142.62780334 23.99829102 142.62698364 C22.0625 142.5 22.0625 142.5 21.0625 141.5 C20.6875 138.625 20.6875 138.625 21.0625 135.5 C23.5 133.75 23.5 133.75 26.0625 132.5 C27.98002863 128.66494273 27.63167657 124.67222088 27.0625 120.5 C25.95658024 117.26390865 24.75282977 114.15491202 23.37280273 111.03051758 C21.34716198 106.43754509 20.32230014 102.53920056 19.0625 97.5 C2.5625 97.83 -13.9375 98.16 -30.9375 98.5 C-37.41487358 113.26089701 -37.41487358 113.26089701 -37.9375 129.5 C-35.74895577 132.60861514 -35.74895577 132.60861514 -32.9375 134.5 C-31.9475 135.49 -31.9475 135.49 -30.9375 136.5 C-31.49305556 141.05555556 -31.49305556 141.05555556 -32.9375 142.5 C-35.43504141 142.61327366 -37.9038999 142.66417191 -40.40234375 142.66796875 C-41.15085098 142.67129715 -41.89935822 142.67462555 -42.67054749 142.67805481 C-44.25683984 142.68312693 -45.8431429 142.68546305 -47.42944336 142.68530273 C-49.86134369 142.68748773 -52.29278949 142.70563581 -54.72460938 142.72460938 C-56.26301928 142.72754349 -57.80143134 142.72952817 -59.33984375 142.73046875 C-60.07009262 142.73765427 -60.80034149 142.74483978 -61.55271912 142.75224304 C-66.70867693 142.72882307 -66.70867693 142.72882307 -68.9375 140.5 C-68.7841418 137.29534241 -68.2345513 135.83144671 -66.08203125 133.4296875 C-65.31246094 132.75164062 -64.54289063 132.07359375 -63.75 131.375 C-56.37628935 124.23426599 -53.06752203 116.16806455 -49.8203125 106.61328125 C-47.17620646 98.94978889 -44.42010567 91.3364442 -41.5625 83.75 C-41.18545929 82.74886673 -40.80841858 81.74773346 -40.41995239 80.71626282 C-38.87314278 76.61581673 -37.32223099 72.51692715 -35.77148438 68.41796875 C-31.46526036 57.02637784 -27.20614276 45.62939017 -23.25390625 34.10925293 C-21.11355687 27.89044516 -18.7105212 21.80628377 -16.21484375 15.72265625 C-15.10366452 12.91922242 -14.14178178 10.12865312 -13.25 7.25 C-10.64082763 -0.20477819 -7.19439328 -0.02274907 0 0 Z " fill="#0A2851" transform="translate(287.9375,268.5)"/>
<path d="M0 0 C1.29824203 0.00135956 1.29824203 0.00135956 2.62271118 0.00274658 C3.5334137 -0.00397064 4.44411621 -0.01068787 5.38241577 -0.01760864 C8.40413819 -0.03666412 11.42563938 -0.04051671 14.44741821 -0.04266357 C16.54248141 -0.04908654 18.6375437 -0.05581452 20.73260498 -0.06283569 C25.1292631 -0.07482757 29.52584254 -0.07851458 33.92251587 -0.07733154 C39.56091675 -0.07712831 45.19881382 -0.10442631 50.83709526 -0.13887596 C55.1659172 -0.16109682 59.494617 -0.16517055 63.82349014 -0.16411209 C65.90235251 -0.16647548 67.98121787 -0.17534025 70.06002426 -0.19077682 C72.96669679 -0.21033822 75.87227158 -0.20463737 78.77896118 -0.19256592 C79.64040741 -0.20380493 80.50185364 -0.21504395 81.3894043 -0.22662354 C87.20977435 -0.1650929 87.20977435 -0.1650929 90.36557007 2.16627502 C92.19975068 4.82989554 92.31980057 6.39190863 92.29116821 9.60968018 C92.28730103 10.62094971 92.28343384 11.63221924 92.27944946 12.6741333 C92.24271118 14.24904541 92.24271118 14.24904541 92.20523071 15.85577393 C92.20394165 16.90958252 92.20265259 17.96339111 92.20132446 19.0491333 C92.11147057 26.87141414 92.11147057 26.87141414 89.83023071 30.29327393 C86.58023071 31.04327393 86.58023071 31.04327393 82.83023071 30.29327393 C81.00381916 28.17569532 79.65591108 25.95994075 78.23257446 23.55499268 C75.490002 19.13173514 71.73332711 16.77560539 66.83023071 15.29327393 C59.20362774 14.07596849 51.53897782 13.96132959 43.83023071 13.73077393 C39.21023071 13.58639893 34.59023071 13.44202393 29.83023071 13.29327393 C29.83023071 29.46327393 29.83023071 45.63327393 29.83023071 62.29327393 C35.37835571 62.19014893 40.92648071 62.08702393 46.64273071 61.98077393 C48.39045776 61.95587891 50.13818481 61.93098389 51.93887329 61.90533447 C53.32586364 61.87304584 54.71282934 61.83967229 56.09976196 61.80499268 C56.81853516 61.79874878 57.53730835 61.79250488 58.27786255 61.78607178 C62.24981566 61.68190223 62.24981566 61.68190223 65.73916626 59.96051025 C67.30937989 57.56109453 68.03874076 55.03304684 68.83023071 52.29327393 C72.20523071 52.16827393 72.20523071 52.16827393 75.83023071 52.29327393 C78.62069365 55.08373686 78.08842982 56.82482399 78.09585571 60.72686768 C78.0997229 62.65949463 78.0997229 62.65949463 78.10366821 64.63116455 C78.09947876 65.30381348 78.09528931 65.9764624 78.0909729 66.66949463 C78.08028936 68.71952041 78.09086034 70.7686664 78.10366821 72.81866455 C78.10109009 74.10837158 78.09851196 75.39807861 78.09585571 76.72686768 C78.09359985 77.91336914 78.09134399 79.09987061 78.08901978 80.32232666 C77.83023071 83.29327393 77.83023071 83.29327393 75.83023071 86.29327393 C72.51773071 86.98077393 72.51773071 86.98077393 68.83023071 86.29327393 C67.24040372 84.37766271 66.16784599 82.4692351 65.06851196 80.23858643 C63.509159 77.78887736 62.54426702 77.32847014 59.83023071 76.29327393 C57.44672586 76.06296486 55.05223801 75.93807738 52.65835571 75.87921143 C51.97593811 75.85984528 51.29352051 75.84047913 50.59042358 75.82052612 C48.42048463 75.76096295 46.25049194 75.71443946 44.08023071 75.66827393 C42.60494774 75.63007261 41.12968657 75.59101962 39.65444946 75.55108643 C36.04657654 75.45528158 32.43853988 75.37116477 28.83023071 75.29327393 C28.92276083 81.73477575 29.03009992 88.17591026 29.14761353 94.61700439 C29.18583651 96.80705198 29.22070094 98.99716092 29.25210571 101.18731689 C29.29790114 104.34004605 29.3558722 107.4923553 29.41616821 110.64483643 C29.42771942 111.62006256 29.43927063 112.5952887 29.45117188 113.60006714 C29.55789033 118.5440037 29.89589175 122.65764757 31.83023071 127.29327393 C37.81386063 128.71138007 43.84773486 128.47928432 49.95767212 128.47857666 C52.05993209 128.48075291 54.16165783 128.49890712 56.26382446 128.5178833 C71.61913933 128.69704135 71.61913933 128.69704135 84.64663696 121.49639893 C87.81104415 117.981859 90.5580939 114.45885809 92.83023071 110.29327393 C93.83023071 109.29327393 93.83023071 109.29327393 96.26773071 109.10577393 C98.83023071 109.29327393 98.83023071 109.29327393 100.83023071 111.29327393 C101.28126947 114.26972883 101.16269381 117.28654678 101.14273071 120.29327393 C101.13709106 121.15235352 101.13145142 122.01143311 101.12564087 122.89654541 C100.8734406 136.09211311 100.8734406 136.09211311 97.83023071 140.29327393 C92.613271 142.59315197 87.77249829 142.57743357 82.1847229 142.55206299 C80.75445267 142.55731995 80.75445267 142.55731995 79.29528809 142.56268311 C76.1558191 142.57145848 73.01657684 142.56566792 69.87710571 142.55889893 C67.69328773 142.56024633 65.50947003 142.5621875 63.32565308 142.56469727 C58.75618627 142.56764246 54.18679778 142.56336859 49.61734009 142.55401611 C43.75031718 142.54259493 37.88347671 142.54920176 32.01646042 142.56116104 C27.51102309 142.56837288 23.00562935 142.5660953 18.50019073 142.56090546 C16.33596017 142.55956849 14.17172569 142.56121832 12.00749969 142.56586456 C8.99094576 142.57092161 5.97469188 142.56323236 2.9581604 142.55206299 C2.05840485 142.55611145 1.15864929 142.56015991 0.23162842 142.56433105 C-5.94123598 142.52180723 -5.94123598 142.52180723 -8.16976929 140.29327393 C-8.73226929 138.04327393 -8.73226929 138.04327393 -8.16976929 135.29327393 C-6.51049674 133.68598903 -4.78321489 132.34761928 -2.89633179 131.01593018 C1.17047254 126.95832676 1.06607756 121.48509392 1.10128784 116.07688904 C1.09723938 115.14476089 1.09319092 114.21263275 1.08901978 113.2522583 C1.09252441 112.25640213 1.09602905 111.26054596 1.09963989 110.23451233 C1.10842201 106.9519447 1.1026204 103.66959365 1.09585571 100.38702393 C1.09720337 98.10068724 1.09914475 95.81435084 1.10165405 93.52801514 C1.10460055 88.73994209 1.10032285 83.95194375 1.0909729 79.16387939 C1.07957872 73.03045455 1.08614072 66.89720475 1.09811783 60.76378632 C1.10534918 56.04372848 1.10304262 51.32371205 1.09786224 46.60365295 C1.09652928 44.34224934 1.09816108 42.08084195 1.10282135 39.81944275 C1.10790744 36.65762387 1.10014684 33.49608743 1.08901978 30.33428955 C1.09306824 29.40216141 1.0971167 28.47003326 1.10128784 27.50965881 C1.05888857 20.99724415 0.45352766 15.2722091 -4.16976929 10.29327393 C-6.25311564 9.04162723 -6.25311564 9.04162723 -8.16976929 8.29327393 C-8.29476929 5.41827393 -8.29476929 5.41827393 -8.16976929 2.29327393 C-5.52964357 -0.34685179 -3.59395429 0.03890893 0 0 Z " fill="#0C2952" transform="translate(97.16976928710938,268.70672607421875)"/>
<path d="M0 0 C3.49630043 2.84771136 6.76803484 5.85796779 10 9 C10.64839844 9.58652344 11.29679688 10.17304688 11.96484375 10.77734375 C18.11441532 16.49631074 23.27702659 22.96166202 23.625 31.625 C23.24614486 37.58565427 21.77710613 42.46904646 17.28125 46.56640625 C11.81145977 50.63398331 6.78112166 51.94028604 0 51 C-5.0871932 49.01357218 -8.64132864 45.44027797 -12.375 41.5625 C-21.13483213 32.51669397 -31.24687928 27.77271102 -43.8125 27.5625 C-58.88479234 27.69049876 -69.69984234 34.43558904 -80.2109375 44.8125 C-82 46 -82 46 -84.0234375 45.8359375 C-86.06290298 44.97339677 -87.52536806 44.00637995 -89.25 42.625 C-97.32339719 36.76116415 -105.17882853 35.93613308 -115 37 C-117.6281553 37.83738466 -119.90723586 38.81444347 -122.328125 40.125 C-124 41 -124 41 -126 41 C-124.18459606 25.47596885 -111.58580036 12.42812094 -100 3 C-96.44479321 0.44639959 -92.79669441 -1.82486874 -89 -4 C-88.25878906 -4.44988281 -87.51757812 -4.89976562 -86.75390625 -5.36328125 C-60.35040681 -20.14374974 -24.3137547 -17.81037958 0 0 Z " fill="#163D72" transform="translate(503,275)"/>
<path d="M0 0 C4.69553784 3.30184235 7.5245584 7.2384002 8.6875 12.875 C9.84787455 20.27238774 8.19982042 24.95145721 3.92578125 31.015625 C-10.71245984 49.71578639 -30.41344029 62.85299034 -54.3125 65.875 C-65.56452582 66.80954632 -76.50727978 66.35464719 -87.3125 62.875 C-88.35277344 62.54628906 -89.39304687 62.21757812 -90.46484375 61.87890625 C-113.2217945 53.90707744 -130.39859283 38.33138825 -141.16015625 16.87890625 C-142.3125 13.875 -142.3125 13.875 -141.3125 10.875 C-140.76980469 11.15214844 -140.22710937 11.42929687 -139.66796875 11.71484375 C-138.59482422 12.25818359 -138.59482422 12.25818359 -137.5 12.8125 C-136.79230469 13.17214844 -136.08460938 13.53179687 -135.35546875 13.90234375 C-128.68860465 17.07643392 -120.57422551 16.82664344 -113.5625 14.75 C-108.87647111 12.97667645 -105.1192316 10.08012279 -101.3125 6.875 C-97.72818095 8.43376201 -95.12933629 10.6359073 -92.1875 13.1875 C-82.04177611 21.57930886 -71.75119755 25.53151445 -58.5546875 25.24609375 C-44.70769692 23.66119724 -34.03968254 16.29702889 -25.0625 6.0625 C-18.2992754 -1.62733962 -9.64403587 -5.55697234 0 0 Z " fill="#163C71" transform="translate(519.3125,359.125)"/>
<path d="M0 0 C1.34644592 -0.00472824 1.34644592 -0.00472824 2.72009277 -0.009552 C4.18412537 -0.00651566 4.18412537 -0.00651566 5.67773438 -0.00341797 C6.67276978 -0.00437469 7.66780518 -0.00533142 8.69299316 -0.00631714 C10.80135155 -0.00699907 12.90971203 -0.0051439 15.01806641 -0.00097656 C18.25753465 0.0043715 21.49686423 -0.00092114 24.73632812 -0.00732422 C26.77929718 -0.00666344 28.82226615 -0.00538228 30.86523438 -0.00341797 C31.8412561 -0.0054422 32.81727783 -0.00746643 33.82287598 -0.009552 C34.72050659 -0.00639984 35.61813721 -0.00324768 36.54296875 0 C37.73424377 0.00119339 37.73424377 0.00119339 38.94958496 0.00241089 C40.77148438 0.12939453 40.77148438 0.12939453 41.77148438 1.12939453 C42.08398438 3.50439453 42.08398438 3.50439453 41.77148438 6.12939453 C41.11148438 6.58314453 40.45148437 7.03689453 39.77148438 7.50439453 C37.46269179 9.03099807 37.46269179 9.03099807 37.14648438 12.12939453 C37.35810296 15.58882036 38.61512225 17.99148818 40.30273438 20.98876953 C40.84591309 21.95878906 41.3890918 22.92880859 41.94873047 23.92822266 C42.55023926 24.98460937 43.15174805 26.04099609 43.77148438 27.12939453 C44.72595459 28.81452148 44.72595459 28.81452148 45.69970703 30.53369141 C47.75519815 34.15473003 49.82521696 37.76736463 51.89648438 41.37939453 C52.60622258 42.61891901 53.31585845 43.8585021 54.02539062 45.09814453 C55.36239977 47.43375068 56.70004937 49.76898576 58.03808594 52.10400391 C59.95189643 55.44427709 61.86256999 58.78632166 63.77148438 62.12939453 C66.83116574 58.52821741 69.08157071 54.92201241 71.23242188 50.71923828 C71.54547272 50.1110878 71.85852356 49.50293732 72.18106079 48.87635803 C73.1748299 46.94253164 74.1607048 45.00480355 75.14648438 43.06689453 C75.79962715 41.79384985 76.45326929 40.52106124 77.10742188 39.24853516 C78.39041846 36.74981189 79.6658442 34.24744969 80.93505859 31.74169922 C82.13449807 29.37390245 83.35166083 27.01852495 84.58056641 24.66552734 C85.12825684 23.6055957 85.67594727 22.54566406 86.24023438 21.45361328 C86.97016602 20.05695435 86.97016602 20.05695435 87.71484375 18.63208008 C89.30389398 14.86836614 89.25405412 12.91818388 87.77148438 9.12939453 C85.83551406 7.61645165 85.83551406 7.61645165 83.77148438 7.12939453 C83.72894081 5.12984707 83.73067655 3.12897817 83.77148438 1.12939453 C86.10864447 -1.20776556 91.95981326 -0.04223166 95.0703125 -0.05615234 C95.74908447 -0.05607178 96.42785645 -0.05599121 97.12719727 -0.0559082 C99.19698701 -0.05809281 101.2662423 -0.07624038 103.3359375 -0.09521484 C105.28209961 -0.09811523 105.28209961 -0.09811523 107.26757812 -0.10107422 C108.46568115 -0.10518311 109.66378418 -0.10929199 110.89819336 -0.11352539 C113.77148438 0.12939453 113.77148438 0.12939453 115.77148438 2.12939453 C115.77148438 4.50439453 115.77148438 4.50439453 114.77148438 7.12939453 C113.35840966 8.03779971 111.9409871 8.94026606 110.50073242 9.80493164 C103.35079539 15.28119994 99.17482803 25.59124932 95.08398438 33.37939453 C93.86318925 35.6752648 92.64182473 37.97083238 91.41992188 40.26611328 C90.50871582 41.98386963 90.50871582 41.98386963 89.57910156 43.73632812 C86.82424804 48.90744566 84.01963445 54.05094873 81.20898438 59.19189453 C80.73307861 60.06426758 80.25717285 60.93664062 79.7668457 61.83544922 C75.84495515 69.01733727 75.84495515 69.01733727 74.51602173 71.04421997 C70.70317051 77.15379367 70.05687392 81.99324751 70.17773438 89.11376953 C70.17769409 90.13239075 70.17765381 91.15101196 70.1776123 92.20050049 C70.18294219 94.33848289 70.20041538 96.4764665 70.22949219 98.61425781 C70.27154662 101.88423417 70.2705369 105.15216049 70.26367188 108.42236328 C70.27415897 110.50701298 70.28709447 112.59165212 70.30273438 114.67626953 C70.30293579 115.65029724 70.30313721 116.62432495 70.30334473 117.62786865 C70.39001013 122.5926993 70.51064302 126.11402438 73.77148438 130.12939453 C75.3254914 131.54456772 75.3254914 131.54456772 76.95898438 132.62939453 C79.77148438 135.12939453 79.77148438 135.12939453 80.33398438 137.81689453 C79.77148438 140.12939453 79.77148438 140.12939453 76.77148438 142.12939453 C74.86766052 142.38336182 74.86766052 142.38336182 72.69897461 142.38818359 C71.47772133 142.39764008 71.47772133 142.39764008 70.23179626 142.4072876 C69.35672928 142.40323914 68.48166229 142.39919067 67.58007812 142.39501953 C66.67902847 142.39693298 65.77797882 142.39884644 64.84962463 142.40081787 C62.94572673 142.4021785 61.04181951 142.39849059 59.13793945 142.39013672 C56.21674888 142.37942301 53.29617157 142.39004253 50.375 142.40283203 C48.52669135 142.40151066 46.67838307 142.39894873 44.83007812 142.39501953 C43.95298691 142.39906799 43.07589569 142.40311646 42.17222595 142.4072876 C36.00140949 142.35931965 36.00140949 142.35931965 33.77148438 140.12939453 C33.20898438 137.31689453 33.20898438 137.31689453 33.77148438 134.12939453 C35.4453968 132.7614191 37.11704497 131.76929596 39.04492188 130.79345703 C44.83535352 125.21263377 43.54667079 111.86336952 43.72573853 104.37521362 C44.03669774 85.7104 42.13171394 74.17701989 30.72167969 58.89941406 C27.30372405 54.04461628 24.68821682 48.76634164 21.95898438 43.50439453 C11.14089782 21.96868198 11.14089782 21.96868198 -6.22851562 6.12939453 C-5.12929016 0.0051384 -5.12929016 0.0051384 0 0 Z " fill="#0B2852" transform="translate(527.228515625,268.87060546875)"/>
<path d="M0 0 C6.12329919 3.2971611 10.33101561 6.69744913 14.734375 12.04296875 C17.10254907 14.71021635 18.28666148 14.75434967 21.9375 15.1875 C26.41981332 15.1387792 28.51178706 13.42399163 31.671875 10.40625 C33.03210152 8.97868554 34.36278784 7.52308008 35.6875 6.0625 C40.89522441 1.36284627 46.87002792 0.09549178 53.796875 0.33984375 C60.28766384 1.42508711 65.07415697 5.92258293 69.0625 10.9296875 C72.2041407 15.74549199 72.91519498 21.14335657 72.25 26.75 C69.76422062 34.01078815 66.06137544 39.08025299 59.25 42.75 C53.23301281 44.73523814 45.87344884 44.86205027 40.0625 42.25 C36.1219268 40.00055575 33.15112404 36.88552839 30.109375 33.5546875 C28.20904959 31.71025401 26.7156883 30.69047004 24.25 29.75 C18.27847321 29.86058383 15.50412994 31.68083223 11.25 35.75 C10.486875 36.575 9.72375 37.4 8.9375 38.25 C4.52868984 42.35121875 -0.54711103 45.98999867 -6.75 46.25 C-13.87498344 45.71173087 -19.99242536 43.37579433 -25.24609375 38.5 C-29.98337693 32.98752502 -32.15517619 26.33532369 -32.015625 19.1484375 C-31.18160355 11.61771441 -26.56185584 7.21182892 -21.06640625 2.4140625 C-14.5636146 -2.25742021 -7.4518544 -2.48395147 0 0 Z " fill="#0A2852" transform="translate(404.75,321.25)"/>
<path d="M0 0 C3.58431905 1.55876201 6.18316371 3.7609073 9.125 6.3125 C19.2828132 14.71430826 29.54096624 18.6191515 42.7421875 18.3828125 C51.72425188 17.32736609 60.07494557 13.77087869 67 8 C67.99 8.495 67.99 8.495 69 9 C64.33217093 19.71266771 49.36854785 27.74982948 39 32 C22.89624298 37.87952419 5.12781187 36.0909951 -10.2890625 29.1171875 C-21.90231524 23.52318726 -31.08223312 16.26172118 -39 6 C-38.41734375 6.2165625 -37.8346875 6.433125 -37.234375 6.65625 C-28.23004268 9.71432513 -19.14506248 10.48428324 -10.11328125 7.06640625 C-6.38661878 5.18585384 -3.18333796 2.68024913 0 0 Z " fill="#082958" transform="translate(418,366)"/>
<path d="M0 0 C19.65055466 -0.99245226 37.8392312 8.62548115 52.07421875 21.37109375 C54.65046594 23.8828003 56.95357953 26.59208775 59.27734375 29.3359375 C61.6181583 31.94537011 64.19799636 34.02301602 66.9453125 36.1953125 C67.6053125 36.8553125 68.2653125 37.5153125 68.9453125 38.1953125 C63.95806692 37.7923932 62.05541481 35.61715269 58.7578125 32.0078125 C53.98543034 26.99413921 49.2285921 23.23360889 42.9453125 20.1953125 C42.2646875 19.85757812 41.5840625 19.51984375 40.8828125 19.171875 C30.99608228 15.08985381 18.48493784 16.09689977 8.6875 19.8671875 C1.42635719 23.38398031 -4.55393144 28.36903418 -10.265625 34.0078125 C-12.0546875 35.1953125 -12.0546875 35.1953125 -14.078125 35.03125 C-16.71518457 33.91597184 -18.66796348 32.33410466 -20.8828125 30.546875 C-27.54121973 26.40333381 -33.41039707 25.77883606 -41.0546875 26.0078125 C-42.35986328 26.02811523 -42.35986328 26.02811523 -43.69140625 26.04882812 C-45.81277377 26.08379572 -47.93381724 26.1375872 -50.0546875 26.1953125 C-39.13193639 12.5479499 -22.58721981 3.85348849 -5.5546875 0.5078125 C-3.70277071 0.34246279 -1.85094022 0.17594489 0 0 Z " fill="#082958" transform="translate(433.0546875,285.8046875)"/>
<path d="M0 0 C2.38648242 2.38648242 2.81323305 4.10208915 3.8125 7.3125 C5.21226405 11.66158239 6.70871086 15.93337275 8.375 20.1875 C10.6615284 26.04101272 12.7593994 31.94650147 14.82617188 37.87988281 C16.52160377 42.7204958 18.34142581 47.4880132 20.3359375 52.21484375 C21 54 21 54 21 56 C7.8 56 -5.4 56 -19 56 C-18.28896065 51.7337639 -17.58078174 48.41359653 -16.1796875 44.4296875 C-15.62873413 42.8511499 -15.62873413 42.8511499 -15.06665039 41.24072266 C-14.67340576 40.13003418 -14.28016113 39.0193457 -13.875 37.875 C-13.47337646 36.72950684 -13.07175293 35.58401367 -12.65795898 34.40380859 C-11.83713567 32.06347821 -11.01446546 29.72379476 -10.18994141 27.38476562 C-9.08950166 24.25458576 -8.0007477 21.12070025 -6.91796875 17.984375 C-6.29949255 16.19791203 -5.68100377 14.41145342 -5.0625 12.625 C-4.78067871 11.80628418 -4.49885742 10.98756836 -4.20849609 10.14404297 C-3.81331787 9.00926514 -3.81331787 9.00926514 -3.41015625 7.8515625 C-3.18465088 7.20010254 -2.95914551 6.54864258 -2.72680664 5.87744141 C-1.94009688 3.84526202 -1.00230793 1.93377001 0 0 Z " fill="#FAFAFB" transform="translate(281,298)"/>
<path d="M0 0 C0.66 0 1.32 0 2 0 C2.33 1.65 2.66 3.3 3 5 C18.18 5.33 33.36 5.66 49 6 C49 6.33 49 6.66 49 7 C42.18238106 7.0252689 35.36477411 7.04283244 28.54711914 7.05493164 C26.22582549 7.05997333 23.90453503 7.06680651 21.58325195 7.07543945 C18.25471205 7.08751225 14.92621398 7.09322979 11.59765625 7.09765625 C10.03048607 7.10539818 10.03048607 7.10539818 8.43165588 7.11329651 C7.47073532 7.11337204 6.50981476 7.11344757 5.51977539 7.11352539 C4.66928116 7.115746 3.81878693 7.11796661 2.94252014 7.12025452 C1 7 1 7 0 6 C-0.04080783 4.00041636 -0.04254356 1.99954746 0 0 Z " fill="#27314D" transform="translate(309,404)"/>
<path d="M0 0 C0.99 0.33 1.98 0.66 3 1 C-0.3 4.3 -3.6 7.6 -7 11 C-7.66 10.34 -8.32 9.68 -9 9 C-6.03 6.03 -3.06 3.06 0 0 Z " fill="#2B4C84" transform="translate(398,282)"/>
<path d="M0 0 C0.66 0 1.32 0 2 0 C0.59155282 3.21524305 -1.10344786 5.32183868 -3.625 7.75 C-4.57246094 8.67039062 -4.57246094 8.67039062 -5.5390625 9.609375 C-6.02117187 10.06828125 -6.50328125 10.5271875 -7 11 C-7.66 10.67 -8.32 10.34 -9 10 C-7.5484451 8.32742645 -6.08855591 6.66208242 -4.625 5 C-3.81289063 4.071875 -3.00078125 3.14375 -2.1640625 2.1875 C-1.44992187 1.465625 -0.73578125 0.74375 0 0 Z " fill="#152F5F" transform="translate(499,360)"/>
<path d="M0 0 C0.66 0 1.32 0 2 0 C2.0825 0.78375 2.165 1.5675 2.25 2.375 C2.72806339 5.14749104 2.72806339 5.14749104 5.0625 6.3125 C5.701875 6.539375 6.34125 6.76625 7 7 C5.00045254 7.04254356 2.99958364 7.04080783 1 7 C0 6 0 6 -0.0625 2.9375 C-0.041875 1.968125 -0.02125 0.99875 0 0 Z " fill="#344059" transform="translate(309,404)"/>
<path d="M0 0 C0.66 0.33 1.32 0.66 2 1 C0.95125002 3.62187494 0.35068687 4.79371361 -2.125 6.25 C-2.74375 6.4975 -3.3625 6.745 -4 7 C-4 6.34 -4 5.68 -4 5 C-4.66 4.67 -5.32 4.34 -6 4 C-4.02 2.68 -2.04 1.36 0 0 Z " fill="#132853" transform="translate(485,374)"/>
</svg>
